<?xml version="1.0" encoding="utf-8"?>
<!-- Generator: Adobe Illustrator 21.1.0, SVG Export Plug-In . SVG Version: 6.00 Build 0)  -->
<svg version="1.1" id="Layer_1" xmlns="http://www.w3.org/2000/svg" xmlns:xlink="http://www.w3.org/1999/xlink" x="0px" y="0px"
	 viewBox="0 0 3217.2 3217.2" style="enable-background:new 0 0 3217.2 3217.2;" xml:space="preserve">
<style type="text/css">
	.st0{fill:#0CD8A1;}
</style>
<g transform="scale(10.858978156502216) translate(10, 10)">
	<g id="main_text" transform="translate(46.65531873703003, 94.98505973815918)" xmlns:name="mainText_mainfill">
		<path class="st0" d="M33.3,44.1c-1-1.6-1.6-3.1-1.8-4.7c0-10.9,0-16.4,0-16.4h2.3v9.7c1-1.1,2.1-2,3.3-2.6c1.2-0.6,2.6-0.8,4-0.8
			c2.6,0,4.8,0.9,6.6,2.7c1.8,1.8,2.7,3.9,2.7,6.5c0,2.5-0.9,4.6-2.8,6.4c-1.8,1.8-4.1,2.7-6.6,2.7c-1.5,0-2.9-0.3-4.2-0.8
			C35.6,46.1,34.4,45.3,33.3,44.1L33.3,44.1z M40.8,45.3c1.3,0,2.5-0.3,3.6-0.9s2-1.5,2.6-2.6c0.7-1.1,1-2.3,1-3.5
			c0-1.2-0.3-2.4-1-3.5c-0.7-1.1-1.5-2-2.7-2.6c-1.1-0.6-2.3-0.9-3.6-0.9c-1.3,0-2.5,0.3-3.7,0.9s-2,1.5-2.7,2.5
			c-0.6,1.1-0.9,2.2-0.9,3.5c0,2,0.7,3.7,2.1,5C37.1,44.7,38.8,45.3,40.8,45.3L40.8,45.3z M63.8,29.3c2.8,0,5.1,1,7,2.9
			c1.7,1.8,2.5,3.9,2.5,6.3c0,2.4-0.9,4.5-2.7,6.3s-4.1,2.7-6.8,2.7c-2.8,0-5.1-0.9-6.8-2.7c-1.8-1.8-2.7-3.9-2.7-6.3
			c0-2.4,0.8-4.5,2.5-6.2C58.6,30.3,61,29.3,63.8,29.3L63.8,29.3z M63.8,31.5c-1.9,0-3.6,0.7-5,2.1c-1.4,1.4-2.1,3-2.1,5
			c0,1.3,0.3,2.4,1,3.5c0.6,1.1,1.5,1.9,2.6,2.5c1.1,0.6,2.3,0.9,3.6,0.9c1.3,0,2.5-0.3,3.6-0.9c1.1-0.6,1.9-1.4,2.6-2.5
			c0.6-1.1,0.9-2.3,0.9-3.5c0-1.9-0.7-3.6-2.1-5S65.7,31.5,63.8,31.5L63.8,31.5z M75.5,30.2h2.8l4.8,6.4l4.8-6.4h2.8l-6.3,8.2l7,9.1
			h-2.8l-5.6-7.3l-5.5,7.3h-2.8l6.9-9.1L75.5,30.2z M93.2,39.5v-2.1c0.2-1,0.4-1.9,0.8-2.5c0.8-1.8,1.8-3.1,3.1-4
			c1.3-0.8,2.4-1.3,3.3-1.3c0.6,0,1.3,0.2,2.1,0.6l-1.2,1.9c-1-0.4-2.1-0.1-3.1,0.9c-1,0.9-1.7,2-2.1,3.1c-0.3,1-0.4,2.8-0.4,5.5
			v5.9h-2.4L93.2,39.5L93.2,39.5z M105.2,23c0.5,0,1,0.2,1.4,0.5c0.4,0.4,0.6,0.8,0.6,1.3c0,0.5-0.2,0.9-0.6,1.3
			c-0.4,0.4-0.8,0.5-1.4,0.5c-0.5,0-1-0.2-1.4-0.5c-0.4-0.4-0.6-0.8-0.6-1.3c0-0.5,0.2-0.9,0.6-1.3C104.2,23.2,104.6,23,105.2,23
			L105.2,23z M104,30.2h2.3v17.3H104V30.2L104,30.2z M128.9,33.3l-1.9,1.1c-1.6-2-3.8-3.1-6.6-3.1c-2.2,0-4.1,0.7-5.5,2
			c-1.5,1.4-2.2,3-2.2,5c0,1.3,0.3,2.5,1,3.6c0.7,1.1,1.6,2,2.8,2.6c1.2,0.6,2.5,0.9,4,0.9c2.7,0,4.9-1,6.6-3l1.9,1.2
			c-0.9,1.2-2,2.2-3.5,2.9c-1.5,0.7-3.1,1-5,1c-2.9,0-5.3-0.9-7.2-2.6c-1.9-1.7-2.9-3.8-2.9-6.3c0-1.7,0.4-3.2,1.3-4.7
			c0.9-1.4,2.1-2.6,3.7-3.4s3.3-1.2,5.2-1.2c1.2,0,2.4,0.2,3.5,0.5c1.1,0.3,2.1,0.8,2.9,1.4C127.7,31.7,128.4,32.5,128.9,33.3
			L128.9,33.3z M142,29.3c2.8,0,5.1,1,7,2.9c1.7,1.8,2.5,3.9,2.5,6.3c0,2.4-0.9,4.5-2.7,6.3s-4.1,2.7-6.8,2.7
			c-2.8,0-5.1-0.9-6.8-2.7c-1.8-1.8-2.7-3.9-2.7-6.3c0-2.4,0.8-4.5,2.5-6.2C136.9,30.3,139.2,29.3,142,29.3L142,29.3z M142,31.5
			c-1.9,0-3.6,0.7-5,2.1c-1.4,1.4-2.1,3-2.1,5c0,1.3,0.3,2.4,1,3.5c0.6,1.1,1.5,1.9,2.6,2.5c1.1,0.6,2.3,0.9,3.6,0.9
			c1.3,0,2.5-0.3,3.6-0.9c1.1-0.6,1.9-1.4,2.6-2.5s0.9-2.3,0.9-3.5c0-1.9-0.7-3.6-2.1-5C145.6,32.2,143.9,31.5,142,31.5L142,31.5z"
			/>
	</g>
</g>
</svg>
