<?xml version="1.0" encoding="utf-8"?>
<!-- Generator: Adobe Illustrator 21.1.0, SVG Export Plug-In . SVG Version: 6.00 Build 0)  -->
<svg version="1.1" id="Layer_1" xmlns="http://www.w3.org/2000/svg" xmlns:xlink="http://www.w3.org/1999/xlink" x="0px" y="0px"
	 viewBox="0 0 354 124.5" style="enable-background:new 0 0 354 124.5;" xml:space="preserve">
<style type="text/css">
	.st0{fill:#0CD8A1;}
</style>
<g id="main_text" transform="translate(46.65531873703003, 94.98505973815918)" xmlns:name="mainText_mainfill">
	<path class="st0" d="M-12.7-16.3c-2.5-4.2-3.9-8.3-4.5-12.2c0-28.8,0-43.3,0-43.1h5.8v25.4c2.5-3,5.3-5.3,8.3-6.7
		c3-1.4,6.4-2.2,10-2.2c6.4,0,12,2.4,16.4,7c4.6,4.7,6.8,10.4,6.8,17S28-19.1,23.4-14.5s-10.1,7-16.6,7c-3.7,0-7.2-0.7-10.4-2.1
		C-6.9-11.1-9.9-13.3-12.7-16.3L-12.7-16.3z M6.3-13c3.3,0,6.3-0.8,9.1-2.4c2.8-1.6,5-3.8,6.6-6.7s2.5-5.9,2.5-9.2
		c0-3.2-0.8-6.3-2.5-9.2c-1.7-2.9-3.8-5.3-6.7-6.8s-5.8-2.4-8.9-2.4s-6.3,0.8-9.1,2.4c-2.9,1.6-5.1,3.8-6.7,6.6s-2.4,5.9-2.4,9.3
		c0,5.3,1.7,9.7,5.3,13.3C-2.9-14.9,1.3-13,6.3-13L6.3-13z M63.6-55.2c7,0,12.8,2.5,17.5,7.6c4.2,4.6,6.3,10.1,6.3,16.4
		s-2.2,11.8-6.7,16.6c-4.5,4.7-10.1,7.1-17.1,7.1S51-9.9,46.5-14.6s-6.6-10.3-6.6-16.6c0-6.3,2.1-11.8,6.3-16.4
		C50.7-52.7,56.6-55.2,63.6-55.2L63.6-55.2z M63.6-49.6c-4.9,0-9.1,1.8-12.5,5.4c-3.6,3.6-5.3,7.9-5.3,13c0,3.3,0.8,6.3,2.4,9.2
		c1.6,2.9,3.7,5.1,6.4,6.6c2.8,1.6,5.7,2.4,8.9,2.4c3.3,0,6.3-0.8,8.9-2.4c2.8-1.6,4.9-3.7,6.4-6.6c1.6-2.9,2.4-5.9,2.4-9.2
		c0-5.1-1.7-9.5-5.3-13C72.5-47.7,68.5-49.6,63.6-49.6L63.6-49.6z M92.9-53h7L112-36l12.1-17h7l-15.7,21.7L133-7.4h-7.1L112-26.6
		L98.2-7.4h-7l17.2-23.9L92.9-53z M137-28.3v-5.5c0.4-2.8,1.1-5,2-6.7c2-4.7,4.6-8.3,7.8-10.5c3.3-2.2,5.9-3.3,8.2-3.3
		c1.6,0,3.3,0.5,5.1,1.6l-3,4.9c-2.6-0.9-5.1-0.1-7.6,2.2c-2.5,2.5-4.3,5.1-5.3,8c-0.7,2.6-1.1,7.4-1.1,14.5v15.4h-5.9L137-28.3
		L137-28.3z M167.1-71.8c1.3,0,2.5,0.5,3.4,1.4c0.9,0.9,1.4,2.1,1.4,3.4c0,1.3-0.5,2.5-1.4,3.4c-0.9,0.9-2.1,1.4-3.4,1.4
		c-1.3,0-2.5-0.5-3.4-1.4c-0.9-0.9-1.4-2.1-1.4-3.4c0-1.3,0.5-2.5,1.4-3.4C164.6-71.3,165.7-71.8,167.1-71.8L167.1-71.8z M164.1-53
		h5.9v45.5h-5.9V-53L164.1-53z M226.3-44.7l-4.6,2.9c-4.1-5.4-9.5-8-16.4-8c-5.5,0-10.1,1.8-13.8,5.4c-3.7,3.6-5.5,7.9-5.5,13
		c0,3.3,0.8,6.4,2.5,9.5c1.7,2.9,3.9,5.3,7,6.8c3,1.6,6.2,2.4,9.9,2.4c6.7,0,12.2-2.6,16.4-8l4.6,3c-2.2,3.3-5.1,5.8-8.8,7.6
		c-3.7,1.8-7.9,2.6-12.6,2.6c-7.2,0-13.2-2.2-17.9-6.8s-7.1-10.1-7.1-16.7c0-4.5,1.1-8.5,3.3-12.4c2.2-3.8,5.3-6.7,9.1-8.8
		c3.8-2.1,8.2-3.2,13-3.2c3,0,5.9,0.4,8.7,1.3c2.8,0.9,5.3,2.1,7.1,3.6C223.3-48.8,225-47,226.3-44.7L226.3-44.7z M259-55.2
		c7,0,12.8,2.5,17.5,7.6c4.2,4.6,6.3,10.1,6.3,16.4s-2.2,11.8-6.7,16.6C271.7-9.9,266-7.5,259-7.5c-7,0-12.6-2.4-17.1-7.1
		s-6.6-10.3-6.6-16.6c0-6.3,2.1-11.8,6.3-16.4C246.3-52.7,252.1-55.2,259-55.2L259-55.2z M259-49.6c-4.9,0-9.1,1.8-12.5,5.4
		c-3.6,3.6-5.3,7.9-5.3,13c0,3.3,0.8,6.3,2.4,9.2c1.6,2.9,3.7,5.1,6.4,6.6c2.8,1.6,5.7,2.4,8.9,2.4s6.3-0.8,8.9-2.4
		c2.8-1.6,4.9-3.7,6.4-6.6c1.6-2.9,2.4-5.9,2.4-9.2c0-5.1-1.7-9.5-5.3-13C268.1-47.7,263.9-49.6,259-49.6L259-49.6z"/>
</g>
</svg>
