<?xml version="1.0" encoding="utf-8"?>
<!-- Generator: Adobe Illustrator 21.1.0, SVG Export Plug-In . SVG Version: 6.00 Build 0)  -->
<svg version="1.1" id="Layer_1" xmlns="http://www.w3.org/2000/svg" xmlns:xlink="http://www.w3.org/1999/xlink" x="0px" y="0px"
	height="160px"
	 viewBox="0 0 432.3 432.3" style="enable-background:new 0 0 432.3 432.3;" xml:space="preserve">
<style type="text/css">
	.st0{fill:#0cd8a1;}
	.st1{fill:#4D4D4D;}
	.st2{fill:#2BE0C6;}
	.st3{fill:#999999;}
	.st4{fill:#FC7A51;}
	.st5{fill:#F9DE58;}
	.st6{fill:#D6B71D;}
	.st7{fill:#FFFFFF;}
	.st8{fill:#FDA589;}
	.st9{fill:#29ABE2;}
</style>
<g>
	<path class="st0" d="M396.7,303.4H140V116.5h196.3c33.4,0,60.5,27.1,60.5,60.5L396.7,303.4"/>
	<path class="st1" d="M140,116.5L140,116.5c-33.4,0-60.5,27.1-60.5,60.5v126.4h120.9V177C200.4,143.6,173.4,116.5,140,116.5z"/>
	<path class="st2" d="M237.8,177v35.2h-16.5V177c0-30.6-22.7-55.9-52.2-59.9c2.7-0.4,5.5-0.6,8.2-0.6
		C210.7,116.5,237.8,143.6,237.8,177z"/>
	<rect x="35.6" y="303.4" class="st3" width="361.2" height="19.8"/>
	<path class="st3" d="M237.8,0h-16.5v223.3c0,4.1,3.4,7.5,7.5,7.5h1.5c4.1,0,7.5-3.4,7.5-7.5V0z"/>
	<polygon class="st4" points="319.1,60.5 221.3,60.5 221.3,0 319.1,0 301.6,30.2 	"/>
	<rect x="67.4" y="196.8" class="st5" width="106.6" height="106.6"/>
	<rect x="174.1" y="196.8" class="st6" width="26.4" height="106.6"/>
	<rect x="108.7" y="196.8" class="st4" width="24.2" height="106.6"/>
	<path class="st4" d="M182.2,163.9c-3.5-3.5-8.3-5.6-13.6-5.6s-10.1,2.2-13.6,5.6c-3.5,3.5-5.6,8.3-5.6,13.6
		c0-5.3-2.2-10.1-5.6-13.6c-3.5-3.5-8.3-5.6-13.6-5.6c-5.3,0-10.1,2.2-13.6,5.6c-3.5,3.5-5.6,8.3-5.6,13.6
		c0,10.6,8.6,19.2,19.2,19.2h19.2h19.2c10.6,0,19.2-8.6,19.2-19.2C187.8,172.2,185.6,167.4,182.2,163.9z M138.9,186.3h-8.8
		c-4.8,0-8.8-3.9-8.8-8.8c0-2.4,1-4.6,2.6-6.2c1.6-1.6,3.8-2.6,6.2-2.6s4.6,1,6.2,2.6c1.6,1.6,2.6,3.8,2.6,6.2L138.9,186.3
		L138.9,186.3z M168.6,186.3h-8.8v-8.8c0-2.4,1-4.6,2.6-6.2c1.6-1.6,3.8-2.6,6.2-2.6s4.6,1,6.2,2.6c1.6,1.6,2.6,3.8,2.6,6.2
		C177.3,182.4,173.4,186.3,168.6,186.3z"/>
	<path class="st4" d="M71.6,339.2L60.5,347l-14.5,10.2v75.1h51.1v-75.1L71.6,339.2 M71.6,367.1c-4.9,0-8.8-3.9-8.8-8.8
		s3.9-8.8,8.8-8.8s8.8,3.9,8.8,8.8S76.5,367.1,71.6,367.1"/>
	<path class="st7" d="M97.2,357.2v75.1H86.5v0h10.7V357.2 M71.6,349.5c-4,0-7.3,2.6-8.4,6.2l2.9,9.4c1.5,1.2,3.5,2,5.6,2
		c4.9,0,8.8-3.9,8.8-8.8C80.4,353.5,76.5,349.5,71.6,349.5"/>
	<path class="st8" d="M71.6,339.2L60.5,347l2.7,8.8c1.1-3.6,4.4-6.2,8.4-6.2c4.9,0,8.8,3.9,8.8,8.8s-3.9,8.8-8.8,8.8
		c-2.1,0-4-0.7-5.6-2l14.9,48.8l5.6,18.3h10.7v-75.1L71.6,339.2"/>
	<path class="st9" d="M71.6,358.9L71.6,358.9c-2.1,0-3.8-1.7-3.8-3.8v-51.7h7.7V355C75.5,357.2,73.7,358.9,71.6,358.9z"/>
</g>
</svg>
